<svg width="91" height="113" viewBox="0 0 91 113" fill="none" xmlns="http://www.w3.org/2000/svg">
<path d="M41.2393 6.69995C46.9096 6.69995 51.9949 7.43015 56.4893 8.89819H56.4902C60.9782 10.2791 64.7518 12.2695 67.7979 14.8787C70.8357 17.3957 73.1429 20.3532 74.7119 23.7488C76.3677 27.1474 77.1952 30.8067 77.1953 34.7195C77.1953 38.3637 76.5448 42.1299 75.25 46.0144L75.248 46.0173C73.9482 49.8303 71.9982 53.2972 69.3994 56.4158C66.7946 59.5416 63.5423 62.1419 59.6504 64.2175L59.6465 64.2195C55.8082 66.2258 51.3314 67.2195 46.2314 67.2195H43.915V103.7H29.0908V20.7166L29.5225 20.657L43.3467 18.7371L43.915 18.658V62.2449C47.3834 62.1794 50.3265 61.4305 52.7637 60.0154C55.4341 58.4291 57.5972 56.431 59.2598 54.0203C60.9306 51.5976 62.1442 48.8799 62.8984 45.863L62.9004 45.8533C63.7429 42.7359 64.163 39.6654 64.1631 36.6404C64.1631 33.9463 63.8684 31.1637 63.2773 28.2927L63.2764 28.2859L63.2744 28.2791C62.7763 25.4562 61.6566 22.8838 59.9111 20.5564L59.9062 20.5496C58.1737 18.157 55.6874 16.2013 52.4219 14.6941L52.4121 14.6892C49.1778 13.1136 44.8245 12.3084 39.3193 12.3083C35.6188 12.3083 32.1347 12.8961 28.8643 14.0701L28.8535 14.074C25.5868 15.1629 22.7461 16.7941 20.3252 18.9646H20.3242C17.9945 21.0447 16.1142 23.6708 14.6895 26.8533L14.6904 26.8542C13.3574 29.9369 12.6836 33.5364 12.6836 37.6638C12.6836 40.2854 12.895 42.4623 13.3096 44.2039C13.7304 45.9714 14.2316 47.4258 14.8066 48.5759C15.3889 49.7404 15.9599 50.6347 16.5156 51.2732C17.1037 51.8608 17.5493 52.2633 17.8594 52.4958L19.0596 53.3962H17.5596C12.6989 53.3962 8.81327 52.1798 5.96582 49.6882C3.0801 47.1632 1.69922 43.0224 1.69922 37.408C1.69922 33.2219 2.79003 29.2951 4.9668 25.6365C6.9997 22.1399 9.67939 19.0662 13 16.4148L13.6719 15.8904C17.3021 13.0392 21.4888 10.796 26.2275 9.15894C30.9759 7.51859 35.9811 6.69995 41.2393 6.69995Z" fill="#007BFF" stroke="#2B2B2B"/>
<g filter="url(#filter0_d_31_12)">
<path d="M49.4152 16.232V59.752C53.1699 59.752 56.3699 58.984 59.0152 57.448C61.7459 55.8266 63.9646 53.7786 65.6712 51.304C67.3779 48.8293 68.6152 46.056 69.3832 42.984C70.2366 39.8266 70.6632 36.712 70.6632 33.64C70.6632 30.9093 70.3646 28.0933 69.7672 25.192C69.2552 22.2906 68.1032 19.6453 66.3112 17.256C64.5192 14.7813 61.9592 12.776 58.6312 11.24C55.3032 9.61862 50.8659 8.80795 45.3192 8.80795C41.5646 8.80795 38.0232 9.40529 34.6952 10.6C31.3672 11.7093 28.4659 13.3733 25.9912 15.592C23.6019 17.7253 21.6819 20.4133 20.2312 23.656C18.8659 26.8133 18.1832 30.4826 18.1832 34.664C18.1832 37.3093 18.3966 39.528 18.8232 41.32C19.2499 43.112 19.7619 44.6053 20.3592 45.8C20.9566 46.9946 21.5539 47.9333 22.1512 48.616C22.7486 49.2133 23.2179 49.64 23.5592 49.896C18.7806 49.896 15.0259 48.7013 12.2952 46.312C9.56455 43.9226 8.19922 39.9546 8.19922 34.408C8.19922 30.312 9.26589 26.472 11.3992 22.888C13.5326 19.2186 16.3912 16.0186 19.9752 13.288C23.5592 10.472 27.6979 8.25329 32.3912 6.63196C37.0846 5.01062 42.0339 4.19995 47.2392 4.19995C52.8712 4.19995 57.9059 4.92529 62.3432 6.37595C66.7806 7.74129 70.4926 9.70396 73.4792 12.264C76.4659 14.7386 78.7272 17.64 80.2632 20.968C81.8846 24.296 82.6952 27.88 82.6952 31.72C82.6952 35.304 82.0552 39.016 80.7752 42.856C79.4952 46.6106 77.5752 50.024 75.0152 53.096C72.4552 56.168 69.2552 58.728 65.4152 60.776C61.6606 62.7386 57.2659 63.72 52.2312 63.72H49.4152V100.2H35.5912V18.152L49.4152 16.232Z" fill="#002A57"/>
<path d="M47.2393 3.69995C52.9096 3.69995 57.9949 4.43015 62.4893 5.89819H62.4902C66.9782 7.27911 70.7518 9.26954 73.7979 11.8787C76.8357 14.3957 79.1429 17.3532 80.7119 20.7488C82.3677 24.1474 83.1952 27.8067 83.1953 31.7195C83.1953 35.3637 82.5448 39.1299 81.25 43.0144L81.248 43.0173C79.9482 46.8303 77.9982 50.2972 75.3994 53.4158C72.7946 56.5416 69.5423 59.1419 65.6504 61.2175L65.6465 61.2195C61.8082 63.2258 57.3314 64.2195 52.2314 64.2195H49.915V100.7H35.0908V17.7166L35.5225 17.657L49.3467 15.7371L49.915 15.658V59.2449C53.3834 59.1794 56.3265 58.4305 58.7637 57.0154C61.4341 55.4291 63.5972 53.431 65.2598 51.0203C66.9306 48.5976 68.1442 45.8799 68.8984 42.863L68.9004 42.8533C69.7429 39.7359 70.163 36.6654 70.1631 33.6404C70.1631 30.9463 69.8684 28.1637 69.2773 25.2927L69.2764 25.2859L69.2744 25.2791C68.7763 22.4562 67.6566 19.8838 65.9111 17.5564L65.9062 17.5496C64.1737 15.157 61.6874 13.2013 58.4219 11.6941L58.4121 11.6892C55.1778 10.1136 50.8245 9.30836 45.3193 9.30835C41.6188 9.30835 38.1347 9.89609 34.8643 11.0701L34.8535 11.074C31.5868 12.1629 28.7461 13.7941 26.3252 15.9646H26.3242C23.9945 18.0447 22.1142 20.6708 20.6895 23.8533L20.6904 23.8542C19.3574 26.9369 18.6836 30.5364 18.6836 34.6638C18.6836 37.2854 18.895 39.4623 19.3096 41.2039C19.7304 42.9714 20.2316 44.4258 20.8066 45.5759C21.3889 46.7404 21.9599 47.6347 22.5156 48.2732C23.1037 48.8608 23.5493 49.2633 23.8594 49.4958L25.0596 50.3962H23.5596C18.6989 50.3962 14.8133 49.1798 11.9658 46.6882C9.0801 44.1632 7.69922 40.0224 7.69922 34.408C7.69922 30.2219 8.79003 26.2951 10.9668 22.6365C12.9997 19.1399 15.6794 16.0662 19 13.4148L19.6719 12.8904C23.3021 10.0392 27.4888 7.79598 32.2275 6.15894C36.9759 4.51859 41.9811 3.69995 47.2393 3.69995Z" stroke="white"/>
</g>
<defs>
<filter id="filter0_d_31_12" x="-0.000781059" y="-4.86374e-05" width="90.8961" height="112.4" filterUnits="userSpaceOnUse" color-interpolation-filters="sRGB">
<feFlood flood-opacity="0" result="BackgroundImageFix"/>
<feColorMatrix in="SourceAlpha" type="matrix" values="0 0 0 0 0 0 0 0 0 0 0 0 0 0 0 0 0 0 127 0" result="hardAlpha"/>
<feOffset dy="4"/>
<feGaussianBlur stdDeviation="3.6"/>
<feComposite in2="hardAlpha" operator="out"/>
<feColorMatrix type="matrix" values="0 0 0 0 0 0 0 0 0 0 0 0 0 0 0 0 0 0 1 0"/>
<feBlend mode="normal" in2="BackgroundImageFix" result="effect1_dropShadow_31_12"/>
<feBlend mode="normal" in="SourceGraphic" in2="effect1_dropShadow_31_12" result="shape"/>
</filter>
</defs>
</svg>
